<?xml version="1.0" encoding="utf-8"?>
<!-- Generator: Adobe Illustrator 17.1.0, SVG Export Plug-In . SVG Version: 6.00 Build 0)  -->
<!DOCTYPE svg PUBLIC "-//W3C//DTD SVG 1.1//EN" "http://www.w3.org/Graphics/SVG/1.1/DTD/svg11.dtd">
<svg version="1.1" id="Layer_1" xmlns="http://www.w3.org/2000/svg" xmlns:xlink="http://www.w3.org/1999/xlink" x="0px" y="0px"
	 viewBox="0 0 100 100" enable-background="new 0 0 100 100" xml:space="preserve">
<g>
	<path fill="#C7AF93" d="M84.5,33.2v2.6c0.3,0.1,0.6,0.3,0.6,0.7v0.8c0,0.4-0.3,0.7-0.7,0.7c-0.4,0-0.7-0.3-0.7-0.7v-0.8
		c0-0.3,0.3-0.6,0.6-0.7v-2.6c-2.3,0.1-4.2,2-4.2,4.3v5.2c0,2.4,1.9,4.3,4.3,4.3c2.4,0,4.3-1.9,4.3-4.3v-5.2
		C88.7,35.2,86.8,33.3,84.5,33.2z"/>
	<g>
		<path fill="#C7AF93" d="M7.8,43.7h0.3c0.2,0.9,0.4,1.7,0.7,2.3c0.3,0.6,0.6,1.1,1,1.5c0.4,0.4,0.7,0.7,1.1,0.9
			c0.4,0.2,0.8,0.4,1.2,0.5s0.8,0.2,1.1,0.2c0.4,0,0.7,0,1,0c0.9,0,1.6-0.1,2.2-0.4c0.6-0.3,1-0.6,1.4-1c0.3-0.4,0.6-0.9,0.7-1.3
			c0.1-0.5,0.2-0.9,0.2-1.3c0-0.6-0.1-1.1-0.3-1.5c-0.2-0.4-0.5-0.8-0.8-1.1c-0.3-0.3-0.7-0.5-1.1-0.7c-0.4-0.2-0.8-0.3-1.1-0.4
			l-2.9-0.9c-1.4-0.4-2.4-1-3.1-1.7c-0.7-0.7-1-1.6-1-2.8c0-0.8,0.1-1.5,0.4-2.1c0.3-0.6,0.6-1.2,1.1-1.7c0.5-0.5,1.1-0.8,1.8-1.1
			s1.4-0.4,2.2-0.4c0.6,0,1.1,0.1,1.5,0.2c0.4,0.1,0.7,0.2,1,0.3c0.3,0.1,0.5,0.2,0.8,0.3c0.2,0.1,0.5,0.2,0.7,0.2
			c0.2,0,0.4,0,0.4-0.1s0.2-0.2,0.3-0.4h0.4v4.6h-0.3c-0.1-0.6-0.3-1.2-0.5-1.8c-0.2-0.6-0.6-1.1-0.9-1.5c-0.4-0.4-0.9-0.8-1.4-1
			c-0.5-0.3-1.2-0.4-1.9-0.4c-0.4,0-0.8,0.1-1.3,0.2c-0.5,0.1-0.9,0.3-1.4,0.6c-0.4,0.3-0.8,0.6-1,1.1c-0.3,0.4-0.4,1-0.4,1.7
			c0,0.5,0.1,1,0.3,1.4c0.2,0.4,0.5,0.7,0.8,1c0.3,0.3,0.7,0.5,1.2,0.7c0.4,0.2,0.9,0.3,1.3,0.5l3.1,1c0.3,0.1,0.7,0.2,1.2,0.4
			c0.5,0.2,1,0.4,1.4,0.8c0.5,0.3,0.9,0.8,1.2,1.3c0.3,0.6,0.5,1.3,0.5,2.1c0,0.8-0.1,1.5-0.4,2.3c-0.3,0.7-0.7,1.3-1.3,1.9
			c-0.6,0.5-1.2,1-2,1.3c-0.8,0.3-1.7,0.5-2.7,0.5c-0.4,0-0.7,0-0.9,0c-0.3,0-0.5,0-0.8-0.1c-0.2,0-0.5-0.1-0.7-0.1
			c-0.2,0-0.5-0.1-0.8-0.2c-0.3-0.1-0.7-0.2-1.1-0.4c-0.4-0.1-0.7-0.2-1-0.2c-0.3,0-0.4,0.1-0.5,0.2c-0.1,0.1-0.2,0.2-0.2,0.4H7.8
			V43.7z"/>
		<path fill="#C7AF93" d="M34,46.4c-0.1,0.2-0.1,0.5-0.3,0.8c-0.1,0.3-0.4,0.7-0.7,1c-0.3,0.3-0.7,0.6-1.3,0.9
			c-0.5,0.3-1.2,0.4-2.1,0.4c-0.6,0-1.3-0.1-2-0.3c-0.7-0.2-1.3-0.5-1.9-1c-0.6-0.4-1-1-1.4-1.8c-0.4-0.7-0.5-1.6-0.5-2.7
			c0-0.8,0.2-1.6,0.5-2.3c0.3-0.7,0.7-1.3,1.3-1.8c0.5-0.5,1.2-0.9,1.9-1.2c0.7-0.3,1.5-0.4,2.3-0.4c0.5,0,0.9,0.1,1.4,0.2
			c0.5,0.1,0.9,0.3,1.3,0.5c0.4,0.2,0.7,0.5,1,0.9c0.3,0.4,0.4,0.8,0.4,1.3c0,0.4-0.1,0.6-0.3,0.9c-0.2,0.2-0.6,0.3-1,0.3
			c-0.3,0-0.6-0.1-0.8-0.2c-0.3-0.1-0.4-0.3-0.4-0.6c0-0.2,0.1-0.5,0.2-0.9c0.1-0.3,0.2-0.6,0.2-0.8c0-0.4-0.2-0.7-0.6-0.9
			s-0.8-0.3-1.3-0.3c-0.4,0-0.8,0-1.1,0.1c-0.4,0.1-0.8,0.3-1.1,0.7s-0.6,0.9-0.8,1.7c-0.2,0.7-0.3,1.7-0.3,3c0,0.7,0,1.4,0.1,2
			c0.1,0.6,0.3,1.2,0.5,1.7c0.2,0.5,0.6,0.9,1,1.1c0.4,0.3,1,0.4,1.7,0.4c0.7,0,1.4-0.1,1.8-0.3c0.5-0.2,0.9-0.5,1.1-0.8
			c0.3-0.3,0.5-0.6,0.6-0.9c0.1-0.3,0.2-0.6,0.3-0.8L34,46.4z"/>
		<path fill="#C7AF93" d="M35.6,48.8h1.9V38.7h-1.9v-0.4h4.1v2.5h0c0.1-0.3,0.2-0.5,0.3-0.9s0.4-0.6,0.6-0.9c0.3-0.3,0.6-0.5,1-0.7
			c0.4-0.2,0.8-0.3,1.4-0.3c0.4,0,0.7,0.1,1,0.2c0.3,0.1,0.5,0.3,0.7,0.5c0.2,0.2,0.3,0.4,0.4,0.7c0.1,0.3,0.1,0.5,0.1,0.8
			c0,0.6-0.1,0.9-0.4,1.1c-0.3,0.2-0.5,0.3-0.9,0.3c-0.7,0-1.1-0.2-1.1-0.7c0-0.2,0-0.3,0.1-0.4c0-0.1,0.1-0.2,0.1-0.3
			c0-0.1,0.1-0.2,0.1-0.3c0-0.1,0-0.3,0-0.5c0-0.5-0.3-0.8-0.9-0.8c-0.3,0-0.6,0.1-0.9,0.3c-0.3,0.2-0.6,0.5-0.8,0.9
			c-0.3,0.4-0.5,0.9-0.7,1.4c-0.2,0.5-0.3,1.2-0.3,1.9v5.8h2.2v0.4h-6.3V48.8z"/>
		<path fill="#C7AF93" d="M46.3,43.8c0-0.8,0.2-1.6,0.5-2.3c0.4-0.7,0.8-1.3,1.4-1.8c0.6-0.5,1.2-0.9,1.9-1.2
			c0.7-0.3,1.4-0.4,2.1-0.4c0.7,0,1.4,0.1,2.1,0.4c0.7,0.3,1.3,0.7,1.9,1.2c0.6,0.5,1,1.1,1.4,1.8c0.4,0.7,0.5,1.5,0.5,2.3
			c0,0.8-0.2,1.5-0.5,2.2c-0.3,0.7-0.8,1.3-1.3,1.8c-0.5,0.5-1.2,0.9-1.9,1.2c-0.7,0.3-1.4,0.5-2.2,0.5c-0.7,0-1.5-0.2-2.2-0.5
			c-0.7-0.3-1.3-0.7-1.9-1.2c-0.5-0.5-1-1.1-1.3-1.8C46.5,45.3,46.3,44.6,46.3,43.8z M48.8,43.8c0,1.2,0.1,2.1,0.3,2.9
			s0.4,1.2,0.7,1.6c0.3,0.4,0.7,0.6,1.1,0.7c0.4,0.1,0.8,0.2,1.3,0.2c0.5,0,0.9-0.1,1.3-0.2c0.4-0.1,0.8-0.4,1.1-0.7
			c0.3-0.4,0.5-0.9,0.7-1.6c0.2-0.7,0.3-1.7,0.3-2.9c0-1-0.1-1.9-0.2-2.5c-0.1-0.7-0.3-1.2-0.6-1.7s-0.6-0.7-1-0.9
			c-0.4-0.2-0.9-0.3-1.5-0.3c-0.6,0-1.1,0.1-1.5,0.3c-0.4,0.2-0.8,0.5-1,0.9c-0.3,0.4-0.5,1-0.6,1.7C48.9,41.9,48.8,42.8,48.8,43.8z
			"/>
		<path fill="#C7AF93" d="M59.9,48.8h1.9V31.3h-1.9V31H64v17.8H66v0.4h-6.1V48.8z"/>
		<path fill="#C7AF93" d="M67.4,48.8h1.9V31.3h-1.9V31h4.1v17.8h1.9v0.4h-6.1V48.8z"/>
		<path fill="#C7AF93" d="M37.4,51.6h4.1v17.8h1.9v0.4h-4.1v-2.2h-0.1c-0.1,0.2-0.2,0.4-0.3,0.7c-0.1,0.3-0.3,0.6-0.6,0.8
			c-0.3,0.3-0.6,0.5-1,0.7c-0.4,0.2-0.9,0.3-1.5,0.3c-0.7,0-1.4-0.2-2.1-0.5c-0.7-0.3-1.2-0.7-1.8-1.3c-0.5-0.5-0.9-1.2-1.2-1.9
			c-0.3-0.7-0.4-1.4-0.4-2.2c0-0.8,0.1-1.5,0.4-2.2c0.3-0.7,0.7-1.3,1.2-1.8c0.5-0.5,1.1-0.9,1.7-1.2c0.6-0.3,1.3-0.5,2-0.5
			c0.9,0,1.7,0.2,2.2,0.7c0.6,0.5,1,1,1.2,1.7h0v-9h-1.9V51.6z M33,64c0,0.9,0,1.7,0.1,2.4c0,0.7,0.2,1.3,0.4,1.8
			c0.2,0.5,0.5,0.9,0.9,1.2c0.4,0.3,1,0.4,1.6,0.4c0.7,0,1.3-0.2,1.7-0.5c0.4-0.3,0.8-0.7,1-1.2c0.2-0.5,0.4-1,0.5-1.6
			c0.1-0.6,0.1-1.2,0.1-1.7c0-0.7,0-1.2,0-1.7c0-0.5-0.1-0.9-0.1-1.3s-0.2-0.7-0.3-1c-0.1-0.3-0.3-0.5-0.4-0.8
			c-0.3-0.3-0.6-0.6-1-0.8c-0.4-0.2-0.9-0.3-1.5-0.3c-0.6,0-1.1,0.1-1.5,0.4c-0.4,0.2-0.7,0.6-0.9,1c-0.2,0.4-0.4,1-0.4,1.6
			C33.1,62.6,33,63.2,33,64z"/>
		<path fill="#C7AF93" d="M45.3,64.4c0-0.8,0.2-1.6,0.5-2.3c0.4-0.7,0.8-1.3,1.4-1.8c0.6-0.5,1.2-0.9,1.9-1.2
			c0.7-0.3,1.4-0.4,2.1-0.4c0.7,0,1.4,0.1,2.1,0.4c0.7,0.3,1.3,0.7,1.9,1.2c0.6,0.5,1,1.1,1.4,1.8c0.4,0.7,0.5,1.5,0.5,2.3
			c0,0.8-0.2,1.5-0.5,2.2c-0.3,0.7-0.8,1.3-1.3,1.8c-0.5,0.5-1.2,0.9-1.9,1.2c-0.7,0.3-1.4,0.5-2.2,0.5c-0.7,0-1.5-0.2-2.2-0.5
			c-0.7-0.3-1.3-0.7-1.9-1.2c-0.5-0.5-1-1.1-1.3-1.8C45.5,65.9,45.3,65.2,45.3,64.4z M47.8,64.4c0,1.2,0.1,2.1,0.3,2.9
			s0.4,1.2,0.7,1.6c0.3,0.4,0.7,0.6,1.1,0.7c0.4,0.1,0.8,0.2,1.3,0.2c0.5,0,0.9-0.1,1.3-0.2c0.4-0.1,0.8-0.4,1.1-0.7
			c0.3-0.4,0.5-0.9,0.7-1.6c0.2-0.7,0.3-1.7,0.3-2.9c0-1-0.1-1.9-0.2-2.5c-0.1-0.7-0.3-1.2-0.6-1.7c-0.3-0.4-0.6-0.7-1-0.9
			c-0.4-0.2-0.9-0.3-1.5-0.3c-0.6,0-1.1,0.1-1.5,0.3c-0.4,0.2-0.8,0.5-1,0.9c-0.3,0.4-0.5,1-0.6,1.7C47.9,62.5,47.8,63.4,47.8,64.4z
			"/>
		<path fill="#C7AF93" d="M57.8,59h6.1v0.4h-2.1l2.8,7.9l2.6-6.2l-0.6-1.6h-1.1V59h5v0.4h-1.7l2.9,7.8l3.2-7.8h-2.4V59h4.1v0.4h-1.3
			l-4.5,11.3l-3.4-9.2l-3.8,9.2l-4.1-11.3h-1.7V59z"/>
		<path fill="#C7AF93" d="M77.3,69.4h1.9V59.3h-1.9V59h4.1v2.7h0c0.1-0.2,0.2-0.5,0.4-0.8c0.2-0.3,0.5-0.7,0.8-1
			c0.3-0.3,0.8-0.6,1.3-0.8c0.5-0.2,1.1-0.3,1.8-0.3c1.1,0,2,0.3,2.7,0.8c0.7,0.5,1,1.4,1,2.6v7.4h1.9v0.4h-6.1v-0.4h1.9v-8.2
			c0-0.7-0.2-1.2-0.5-1.6c-0.3-0.4-0.8-0.6-1.5-0.6c-0.5,0-1.1,0.1-1.5,0.4c-0.5,0.2-0.9,0.6-1.3,1c-0.4,0.4-0.7,0.9-0.9,1.5
			c-0.2,0.6-0.3,1.2-0.3,1.9v5.7h1.9v0.4h-6.1V69.4z"/>
	</g>
</g>
</svg>
